<svg width="120" height="120" viewBox="0 0 120 120" fill="none" xmlns="http://www.w3.org/2000/svg">
<g filter="url(#filter0_d_517_1833)">
<circle cx="60" cy="60" r="45" fill="white"/>
</g>
<path d="M51.6451 59.2415H55.1508L53.4323 55.4482L51.6451 59.2415ZM59.6188 34.068C55.7694 34.068 52.1492 34.6542 48.7581 35.8267C45.367 36.9991 42.4113 38.5969 39.8909 40.62C37.3705 42.6431 35.3885 44.9995 33.945 47.6893C32.5015 50.379 31.7798 53.2642 31.7798 56.3448C31.7798 58.3219 32.0777 60.2186 32.6734 62.0347C33.2691 63.8509 34.1169 65.5521 35.2167 67.1384C36.3165 68.7247 37.6454 70.1845 39.2035 71.5179C40.7616 72.8513 42.5029 74.0238 44.4276 75.0353L42.2967 85.9324L54.3947 78.2079C55.2195 78.3458 56.0673 78.4493 56.938 78.5182C57.8087 78.5872 58.7023 78.6217 59.6188 78.6217C63.4681 78.6217 67.0883 78.0355 70.4794 76.863C73.8705 75.6905 76.8262 74.1043 79.3466 72.1042C81.867 70.1041 83.849 67.7476 85.2925 65.0349C86.736 62.3221 87.4578 59.4254 87.4578 56.3448C87.4578 53.2642 86.736 50.379 85.2925 47.6893C83.849 44.9995 81.867 42.6431 79.3466 40.62C76.8262 38.5969 73.8705 36.9991 70.4794 35.8267C67.0883 34.6542 63.4681 34.068 59.6188 34.068ZM45.5274 62.9658C45.5274 63.1038 45.4931 63.2417 45.4243 63.3796C45.3556 63.5176 45.2754 63.6555 45.1837 63.7934C45.0463 63.8854 44.9088 63.9659 44.7713 64.0348C44.6338 64.1038 44.4734 64.1383 44.2901 64.1383H44.0839C43.9006 64.1383 43.7402 64.1038 43.6028 64.0348C43.4653 63.9659 43.3278 63.8854 43.1903 63.7934C43.0987 63.6555 43.0299 63.5176 42.9841 63.3796C42.9383 63.2417 42.9154 63.1038 42.9154 62.9658V53.2412H40.0284C39.8909 53.2412 39.7763 53.2183 39.6847 53.1723C39.593 53.1263 39.4785 53.0803 39.341 53.0343C39.2493 52.9884 39.1691 52.9194 39.1004 52.8274C39.0317 52.7355 38.9744 52.6435 38.9286 52.5516C38.9286 52.5056 38.9171 52.4366 38.8942 52.3447C38.8713 52.2527 38.8598 52.1837 38.8598 52.1377C38.8598 52.0458 38.8713 51.9653 38.8942 51.8964C38.9171 51.8274 38.9286 51.7699 38.9286 51.7239C38.9744 51.632 39.0202 51.563 39.066 51.517C39.1119 51.4711 39.1577 51.4251 39.2035 51.3791C39.2952 51.2871 39.4212 51.2067 39.5816 51.1377C39.742 51.0687 39.8909 51.0342 40.0284 51.0342H48.3457C48.4373 51.0342 48.5405 51.0572 48.655 51.1032C48.7696 51.1492 48.8727 51.1952 48.9643 51.2412C49.056 51.2871 49.1362 51.3561 49.2049 51.4481C49.2737 51.54 49.3309 51.632 49.3768 51.7239C49.4226 51.7699 49.457 51.8274 49.4799 51.8964C49.5028 51.9653 49.5142 52.0458 49.5142 52.1377C49.5142 52.1837 49.5028 52.2527 49.4799 52.3447C49.457 52.4366 49.4226 52.5056 49.3768 52.5516C49.3768 52.5975 49.3539 52.655 49.308 52.724C49.2622 52.7929 49.2164 52.8504 49.1706 52.8964C49.0331 52.9884 48.8956 53.0688 48.7581 53.1378C48.6207 53.2068 48.4832 53.2412 48.3457 53.2412H45.5274V62.9658ZM59.4126 63.5176C59.3209 63.6555 59.2293 63.759 59.1376 63.8279C59.0459 63.8969 58.9543 63.9544 58.8626 64.0004L58.6564 64.0693C58.4731 64.1613 58.2784 64.2073 58.0722 64.2073C57.8659 64.2073 57.6712 64.1383 57.4879 64.0004C57.3962 63.9544 57.316 63.8854 57.2473 63.7934C57.1786 63.7015 57.1213 63.6095 57.0755 63.5176L56.1131 61.3795H50.6828L49.7205 63.5176C49.6746 63.6095 49.6174 63.7015 49.5486 63.7934C49.4799 63.8854 49.3997 63.9544 49.308 64.0004C49.1247 64.0923 48.9414 64.1498 48.7581 64.1728C48.5748 64.1958 48.3915 64.1613 48.2082 64.0693L47.9333 64.0004C47.8416 63.9544 47.75 63.8854 47.6583 63.7934C47.5667 63.7015 47.4979 63.6095 47.4521 63.5176C47.4063 63.4256 47.3605 63.3337 47.3146 63.2417C47.2688 63.1497 47.2459 63.0348 47.2459 62.8969C47.2459 62.8049 47.2573 62.7244 47.2803 62.6555C47.3032 62.5865 47.3375 62.506 47.3834 62.4141L52.0576 52.0688L52.1263 51.9308C52.1263 51.8849 52.1378 51.8389 52.1607 51.7929C52.1836 51.7469 52.218 51.7009 52.2638 51.655C52.2638 51.609 52.2752 51.5745 52.2981 51.5515C52.3211 51.5285 52.3325 51.517 52.3325 51.517C52.3783 51.4251 52.4356 51.3446 52.5044 51.2756C52.5731 51.2067 52.6533 51.1492 52.7449 51.1032C52.8366 51.0572 52.9282 51.0228 53.0199 50.9998C53.1115 50.9768 53.2261 50.9653 53.3636 50.9653C53.3636 50.9653 53.375 50.9653 53.398 50.9653C53.4209 50.9653 53.4552 50.9653 53.5011 50.9653C53.6385 50.9653 53.7531 50.9768 53.8448 50.9998C53.9364 51.0228 54.0281 51.0802 54.1197 51.1722C54.1655 51.1722 54.2114 51.1952 54.2572 51.2412C54.303 51.2871 54.3488 51.3331 54.3947 51.3791C54.4405 51.4251 54.4749 51.4711 54.4978 51.517C54.5207 51.563 54.5551 51.586 54.6009 51.586C54.6009 51.678 54.6123 51.7469 54.6352 51.7929C54.6582 51.8389 54.6925 51.9079 54.7384 51.9998L59.6875 63.0348L59.4126 63.5176ZM69.3796 63.5176C69.3338 63.5635 69.2994 63.6095 69.2765 63.6555C69.2536 63.7015 69.2192 63.7475 69.1734 63.7934C69.0359 63.8854 68.8984 63.9659 68.761 64.0348C68.6235 64.1038 68.486 64.1383 68.3485 64.1383H61.4747C61.4747 64.1383 61.4632 64.1383 61.4403 64.1383C61.4174 64.1383 61.383 64.1383 61.3372 64.1383C61.2456 64.0923 61.1539 64.0578 61.0623 64.0348C60.9706 64.0118 60.9019 63.9774 60.8561 63.9314C60.7644 63.8854 60.6842 63.8279 60.6155 63.759C60.5467 63.69 60.4895 63.6095 60.4436 63.5176L60.3062 63.3107V52.2067C60.3062 52.0688 60.3405 51.9308 60.4093 51.7929C60.478 51.655 60.5582 51.517 60.6498 51.3791C60.7415 51.2871 60.8675 51.2067 61.0279 51.1377C61.1883 51.0687 61.3372 51.0342 61.4747 51.0342H61.7497C61.8871 51.0342 62.0361 51.0687 62.1965 51.1377C62.3568 51.2067 62.4829 51.2871 62.5745 51.3791C62.6662 51.517 62.7464 51.655 62.8151 51.7929C62.8838 51.9308 62.9182 52.0688 62.9182 52.2067V62.0003H68.3485C68.4402 62.0003 68.5433 62.0118 68.6578 62.0347C68.7724 62.0577 68.8755 62.1152 68.9672 62.2072C69.013 62.2072 69.0588 62.2302 69.1046 62.2761C69.1505 62.3221 69.1963 62.3681 69.2421 62.4141L69.7233 62.8969L69.3796 63.5176ZM80.309 63.3107C80.2631 63.4026 80.2173 63.4831 80.1715 63.5521C80.1257 63.621 80.0569 63.6785 79.9653 63.7245L79.7591 63.9314C79.5758 64.0233 79.3696 64.0808 79.1404 64.1038C78.9113 64.1268 78.7051 64.0923 78.5218 64.0004C78.4301 63.9544 78.3499 63.9084 78.2812 63.8624C78.2125 63.8164 78.1552 63.7475 78.1094 63.6555L74.3975 58.6208L72.8852 60.2071V62.9658C72.8852 63.1038 72.8509 63.2417 72.7821 63.3796C72.7134 63.5176 72.6332 63.6555 72.5416 63.7934C72.4041 63.8854 72.2666 63.9659 72.1291 64.0348C71.9916 64.1038 71.8542 64.1383 71.7167 64.1383H71.4417C71.3043 64.1383 71.1553 64.1038 70.9949 64.0348C70.8346 63.9659 70.7085 63.8854 70.6169 63.7934C70.5711 63.7475 70.5367 63.7015 70.5138 63.6555C70.4909 63.6095 70.4565 63.5635 70.4107 63.5176L70.2732 63.2417V52.2067C70.2732 52.0688 70.3076 51.9308 70.3763 51.7929C70.445 51.655 70.5252 51.517 70.6169 51.3791C70.7085 51.2871 70.8346 51.2067 70.9949 51.1377C71.1553 51.0687 71.3043 51.0342 71.4417 51.0342H71.7167C71.8542 51.0342 72.0031 51.0687 72.1635 51.1377C72.3239 51.2067 72.4499 51.2871 72.5416 51.3791C72.6332 51.517 72.7134 51.655 72.7821 51.7929C72.8509 51.9308 72.8852 52.0688 72.8852 52.2067V56.4138L77.6969 51.3791C77.7427 51.3331 77.8 51.2871 77.8688 51.2412C77.9375 51.1952 77.9948 51.1722 78.0406 51.1722C78.2697 51.0802 78.4989 51.0457 78.728 51.0687C78.9571 51.0917 79.1633 51.1952 79.3466 51.3791L79.5529 51.586C79.5987 51.632 79.6445 51.6895 79.6903 51.7584C79.7362 51.8274 79.782 51.8849 79.8278 51.9308C79.8278 52.0228 79.8393 52.1033 79.8622 52.1722C79.8851 52.2412 79.8965 52.3217 79.8965 52.4136C79.8965 52.5516 79.8622 52.6895 79.7934 52.8274C79.7247 52.9654 79.6445 53.1033 79.5529 53.2412L76.2534 56.6897L80.2402 62.0692C80.2861 62.2072 80.3319 62.3336 80.3777 62.4486C80.4235 62.5635 80.4465 62.667 80.4465 62.7589C80.4465 62.8509 80.435 62.9428 80.4121 63.0348C80.3892 63.1267 80.3548 63.2187 80.309 63.3107Z" fill="#FAC000"/>
<defs>
<filter id="filter0_d_517_1833" x="0" y="0" width="120" height="120" filterUnits="userSpaceOnUse" color-interpolation-filters="sRGB">
<feFlood flood-opacity="0" result="BackgroundImageFix"/>
<feColorMatrix in="SourceAlpha" type="matrix" values="0 0 0 0 0 0 0 0 0 0 0 0 0 0 0 0 0 0 127 0" result="hardAlpha"/>
<feOffset/>
<feGaussianBlur stdDeviation="7.5"/>
<feComposite in2="hardAlpha" operator="out"/>
<feColorMatrix type="matrix" values="0 0 0 0 0.908333 0 0 0 0 0.908333 0 0 0 0 0.908333 0 0 0 0.5 0"/>
<feBlend mode="normal" in2="BackgroundImageFix" result="effect1_dropShadow_517_1833"/>
<feBlend mode="normal" in="SourceGraphic" in2="effect1_dropShadow_517_1833" result="shape"/>
</filter>
</defs>
</svg>
