<svg width="32" height="30" viewBox="0 0 32 30" fill="none" xmlns="http://www.w3.org/2000/svg">
<path d="M11.8311 14.4945H13.7645L12.8167 12.4094L11.8311 14.4945ZM16.2287 0.656994C14.1057 0.656994 12.1091 0.979239 10.2388 1.62373C8.36852 2.26822 6.73834 3.14649 5.34826 4.25855C3.95819 5.37061 2.86509 6.6659 2.06896 8.14444C1.27282 9.62297 0.874756 11.2089 0.874756 12.9023C0.874756 13.9891 1.03904 15.0316 1.3676 16.0299C1.69616 17.0283 2.16373 17.9634 2.77031 18.8354C3.37689 19.7073 4.10984 20.5098 4.96915 21.2427C5.82847 21.9757 6.78889 22.6202 7.8504 23.1762L6.67515 29.1661L13.3475 24.9201C13.8024 24.9959 14.27 25.0528 14.7502 25.0907C15.2304 25.1286 15.7233 25.1476 16.2287 25.1476C18.3518 25.1476 20.3484 24.8253 22.2187 24.1808C24.089 23.5363 25.7192 22.6644 27.1092 21.565C28.4993 20.4655 29.5924 19.1702 30.3885 17.6791C31.1847 16.1879 31.5827 14.5956 31.5827 12.9023C31.5827 11.2089 31.1847 9.62297 30.3885 8.14444C29.5924 6.6659 28.4993 5.37061 27.1092 4.25855C25.7192 3.14649 24.089 2.26822 22.2187 1.62373C20.3484 0.979239 18.3518 0.656994 16.2287 0.656994ZM8.45697 16.5417C8.45697 16.6176 8.43802 16.6934 8.40011 16.7692C8.3622 16.845 8.31797 16.9209 8.26742 16.9967C8.1916 17.0472 8.11577 17.0915 8.03995 17.1294C7.96413 17.1673 7.87567 17.1862 7.77457 17.1862H7.66084C7.55974 17.1862 7.47129 17.1673 7.39546 17.1294C7.31964 17.0915 7.24382 17.0472 7.168 16.9967C7.11745 16.9209 7.07954 16.845 7.05426 16.7692C7.02899 16.6934 7.01635 16.6176 7.01635 16.5417V11.1963H5.42409C5.34826 11.1963 5.28508 11.1836 5.23453 11.1584C5.18398 11.1331 5.1208 11.1078 5.04498 11.0825C4.99443 11.0573 4.9502 11.0194 4.91229 10.9688C4.87438 10.9183 4.84278 10.8677 4.81751 10.8172C4.81751 10.7919 4.81119 10.754 4.79855 10.7034C4.78592 10.6529 4.7796 10.615 4.7796 10.5897C4.7796 10.5392 4.78592 10.4949 4.79855 10.457C4.81119 10.4191 4.81751 10.3875 4.81751 10.3622C4.84278 10.3117 4.86806 10.2738 4.89333 10.2485C4.91861 10.2232 4.94388 10.198 4.96915 10.1727C5.0197 10.1221 5.08921 10.0779 5.17766 10.04C5.26612 10.0021 5.34826 9.98312 5.42409 9.98312H10.0113C10.0619 9.98312 10.1187 9.99576 10.1819 10.021C10.2451 10.0463 10.302 10.0716 10.3525 10.0969C10.4031 10.1221 10.4473 10.16 10.4852 10.2106C10.5231 10.2611 10.5547 10.3117 10.58 10.3622C10.6053 10.3875 10.6242 10.4191 10.6369 10.457C10.6495 10.4949 10.6558 10.5392 10.6558 10.5897C10.6558 10.615 10.6495 10.6529 10.6369 10.7034C10.6242 10.754 10.6053 10.7919 10.58 10.8172C10.58 10.8424 10.5674 10.874 10.5421 10.9119C10.5168 10.9499 10.4915 10.9814 10.4663 11.0067C10.3904 11.0573 10.3146 11.1015 10.2388 11.1394C10.163 11.1773 10.0872 11.1963 10.0113 11.1963H8.45697V16.5417ZM16.115 16.845C16.0645 16.9209 16.0139 16.9777 15.9634 17.0156C15.9128 17.0535 15.8623 17.0851 15.8117 17.1104L15.698 17.1483C15.5969 17.1989 15.4895 17.2241 15.3757 17.2241C15.262 17.2241 15.1546 17.1862 15.0535 17.1104C15.003 17.0851 14.9587 17.0472 14.9208 16.9967C14.8829 16.9461 14.8513 16.8956 14.826 16.845L14.2953 15.6698H11.3003L10.7696 16.845C10.7443 16.8956 10.7127 16.9461 10.6748 16.9967C10.6369 17.0472 10.5926 17.0851 10.5421 17.1104C10.441 17.161 10.3399 17.1926 10.2388 17.2052C10.1377 17.2178 10.0366 17.1989 9.93551 17.1483L9.78386 17.1104C9.73331 17.0851 9.68277 17.0472 9.63222 16.9967C9.58167 16.9461 9.54376 16.8956 9.51849 16.845C9.49321 16.7945 9.46794 16.7439 9.44266 16.6934C9.41739 16.6428 9.40475 16.5797 9.40475 16.5038C9.40475 16.4533 9.41107 16.4091 9.42371 16.3711C9.43634 16.3332 9.4553 16.289 9.48057 16.2385L12.0585 10.5518L12.0964 10.476C12.0964 10.4507 12.1028 10.4254 12.1154 10.4001C12.128 10.3749 12.147 10.3496 12.1723 10.3243C12.1723 10.299 12.1786 10.2801 12.1912 10.2675C12.2039 10.2548 12.2102 10.2485 12.2102 10.2485C12.2354 10.198 12.267 10.1537 12.3049 10.1158C12.3429 10.0779 12.3871 10.0463 12.4376 10.021C12.4882 9.99576 12.5387 9.9768 12.5893 9.96417C12.6398 9.95153 12.703 9.94521 12.7788 9.94521C12.7788 9.94521 12.7852 9.94521 12.7978 9.94521C12.8104 9.94521 12.8294 9.94521 12.8547 9.94521C12.9305 9.94521 12.9937 9.95153 13.0442 9.96417C13.0948 9.9768 13.1453 10.0084 13.1959 10.0589C13.2211 10.0589 13.2464 10.0716 13.2717 10.0969C13.297 10.1221 13.3222 10.1474 13.3475 10.1727C13.3728 10.198 13.3917 10.2232 13.4044 10.2485C13.417 10.2738 13.436 10.2864 13.4612 10.2864C13.4612 10.337 13.4676 10.3749 13.4802 10.4001C13.4928 10.4254 13.5118 10.4633 13.5371 10.5139L16.2667 16.5797L16.115 16.845ZM21.6121 16.845C21.5868 16.8703 21.5679 16.8956 21.5553 16.9209C21.5426 16.9461 21.5237 16.9714 21.4984 16.9967C21.4226 17.0472 21.3467 17.0915 21.2709 17.1294C21.1951 17.1673 21.1193 17.1862 21.0435 17.1862H17.2523C17.2523 17.1862 17.246 17.1862 17.2334 17.1862C17.2208 17.1862 17.2018 17.1862 17.1765 17.1862C17.126 17.161 17.0754 17.142 17.0249 17.1294C16.9743 17.1167 16.9364 17.0978 16.9111 17.0725C16.8606 17.0472 16.8164 17.0156 16.7785 16.9777C16.7405 16.9398 16.709 16.8956 16.6837 16.845L16.6079 16.7313V10.6276C16.6079 10.5518 16.6268 10.476 16.6647 10.4001C16.7026 10.3243 16.7469 10.2485 16.7974 10.1727C16.848 10.1221 16.9175 10.0779 17.0059 10.04C17.0944 10.0021 17.1765 9.98312 17.2523 9.98312H17.404C17.4798 9.98312 17.562 10.0021 17.6504 10.04C17.7389 10.0779 17.8084 10.1221 17.8589 10.1727C17.9095 10.2485 17.9537 10.3243 17.9916 10.4001C18.0295 10.476 18.0485 10.5518 18.0485 10.6276V16.011H21.0435C21.094 16.011 21.1509 16.0173 21.2141 16.0299C21.2772 16.0426 21.3341 16.0742 21.3847 16.1247C21.4099 16.1247 21.4352 16.1374 21.4605 16.1626C21.4858 16.1879 21.511 16.2132 21.5363 16.2385L21.8017 16.5038L21.6121 16.845ZM27.64 16.7313C27.6147 16.7818 27.5894 16.8261 27.5642 16.864C27.5389 16.9019 27.501 16.9335 27.4504 16.9588L27.3367 17.0725C27.2356 17.123 27.1219 17.1546 26.9955 17.1673C26.8691 17.1799 26.7554 17.161 26.6543 17.1104C26.6038 17.0851 26.5595 17.0599 26.5216 17.0346C26.4837 17.0093 26.4521 16.9714 26.4268 16.9209L24.3796 14.1533L23.5456 15.0253V16.5417C23.5456 16.6176 23.5266 16.6934 23.4887 16.7692C23.4508 16.845 23.4066 16.9209 23.356 16.9967C23.2802 17.0472 23.2044 17.0915 23.1286 17.1294C23.0527 17.1673 22.9769 17.1862 22.9011 17.1862H22.7495C22.6736 17.1862 22.5915 17.1673 22.503 17.1294C22.4146 17.0915 22.3451 17.0472 22.2945 16.9967C22.2692 16.9714 22.2503 16.9461 22.2377 16.9209C22.225 16.8956 22.2061 16.8703 22.1808 16.845L22.105 16.6934V10.6276C22.105 10.5518 22.1239 10.476 22.1618 10.4001C22.1997 10.3243 22.244 10.2485 22.2945 10.1727C22.3451 10.1221 22.4146 10.0779 22.503 10.04C22.5915 10.0021 22.6736 9.98312 22.7495 9.98312H22.9011C22.9769 9.98312 23.0591 10.0021 23.1475 10.04C23.236 10.0779 23.3055 10.1221 23.356 10.1727C23.4066 10.2485 23.4508 10.3243 23.4887 10.4001C23.5266 10.476 23.5456 10.5518 23.5456 10.6276V12.9402L26.1994 10.1727C26.2246 10.1474 26.2562 10.1221 26.2941 10.0969C26.3321 10.0716 26.3636 10.0589 26.3889 10.0589C26.5153 10.0084 26.6417 9.98944 26.768 10.0021C26.8944 10.0147 27.0081 10.0716 27.1092 10.1727L27.223 10.2864C27.2482 10.3117 27.2735 10.3433 27.2988 10.3812C27.3241 10.4191 27.3493 10.4507 27.3746 10.476C27.3746 10.5265 27.3809 10.5707 27.3936 10.6087C27.4062 10.6466 27.4125 10.6908 27.4125 10.7413C27.4125 10.8172 27.3936 10.893 27.3557 10.9688C27.3177 11.0446 27.2735 11.1205 27.223 11.1963L25.4032 13.0918L27.6021 16.0489C27.6273 16.1247 27.6526 16.1942 27.6779 16.2574C27.7032 16.3206 27.7158 16.3775 27.7158 16.428C27.7158 16.4786 27.7095 16.5291 27.6969 16.5797C27.6842 16.6302 27.6653 16.6808 27.64 16.7313Z" fill="#2A2323"/>
</svg>
